<?xml version="1.0" encoding="UTF-8"?>
<svg id="Camada_2" data-name="Camada 2" xmlns="http://www.w3.org/2000/svg" viewBox="0 0 460.57 393.49">
  <defs>
    <style>
      .cls-1 {
        fill: #010101;
      }

      .cls-2 {
        fill: #a7a7a7;
      }

      .cls-3 {
        fill: #020202;
      }

      .cls-4 {
        fill: #cecece;
      }

      .cls-5 {
        fill: #050505;
      }

      .cls-6 {
        fill: #060606;
      }

      .cls-7 {
        fill: #454545;
      }

      .cls-8 {
        fill: #030303;
      }

      .cls-9 {
        fill: #868686;
      }

      .cls-10 {
        fill: #fefefe;
      }

      .cls-11 {
        fill: #fdfdfd;
      }
    </style>
  </defs>
  <g id="Camada_1-2" data-name="Camada 1">
    <g>
      <path class="cls-11" d="M460.03,388.02l.54,1.01c-1.44-.15-2.77.43-4.18.52-19.62,1.18-41.34-.17-61.24-.05-120.01.73-240.25,2.48-360.23,3.51-9.82.08-23.79,1.04-33.12,0-2.31-.26-2.33-2.16-.46-2.49,4.35-.77,12.39.13,17.29.02,17.66-.43,35.59-.78,53.26-1.03,8.97-.13,17.95.14,26.91.02-8.19-18.45-.58-39.42,8.31-56.1,7.6-14.27,16.53-28.85,24.86-42.76,14.24-23.76,28.88-49.7,49.25-68.7.9-.84,5.2-3.86,5.43-4.44.38-.97-2.22-1.31-2.42-2.54,1.16-3.68,3.34.69,5.51.24.75-.16,6.68-4.29,8.26-5.11,9.1-4.74,19.44-8.09,29.59-9.64l.03-12.81c-10.08-.36-21.04-2.68-29.57-8.18-14.77-9.53-19.77-25.86-20.27-42.8-12.67-8.83-13.1-27.28-2.06-37.68-22.01-34.12,5.9-72.88,44.73-69.75,2.31.18,5.92,1.53,7.88,1.43,1.8-.08,6.72-2.14,9.15-2.68,11.58-2.56,23.01-2.35,34.55.25l-4.3-7.28c-2.95-13.84,12.71-25.18,25.38-19.46,11.05,4.98,18.14,25.88,4.93,32.26l-9.22,1.88c20.68,12.56,28.37,37.8,28.15,60.98-.22,22.19-2.5,44.83-3.5,67.08-.13,2.93.12,5.91.05,8.84-.14.52-2.62.78-3.22.82-13.24.87-27.31.01-40.5.95-1.07.07-3.83.4-4.66.77-1.59.71-5.33,5.46-5.31,7.52l.37,18.37c27.84,4.67,59.25,15.71,76.4,39.34,16.46,22.66,21.64,57.35,24.27,84.79,1.94,20.26,3.65,43.01-2.95,62.43l102.65-.98-.34.99-101.69.98-1.26-.76c6.4-23.06,4.56-47.33,1.75-70.86-2.85-23.89-7.19-50.35-19.96-71.12-16.51-26.85-48.34-38.38-77.98-43.65-1.14-.02-1.53-.61-1.89-1.47-.36-.87-.57-17.53-.28-18.75,1.46-6.33,7.61-9.5,14.01-8.78,13.39.01,26.62-.37,39.69-1.13.19-17.32,1.04-34.74,2.54-52.27.3-6,.52-12,.74-18.01.89-24.5-5.12-50.67-26.82-64.76-1.06-.85-.7-1.45-.03-2.38,15.65-.42,19.27-13.43,11-25.62-13.02-19.19-42.16.17-27.52,18.18-.08,1.38-.13,2.1-1.77,1.82-14.44-3.39-29.02-1.73-42.37,2.7-39.96-10.39-75.53,30.21-51.83,67.39-10.56,10.94-10.64,27.92,2.04,37.2-.13,30.27,18.96,50.15,49.46,50.76.85.42.74,13.72.05,14.08-13.88,2.54-26.88,7.51-38.09,15.05l-1.81-.16c-4.01-2.38-3.43-1.74-.62,1.11l-.2,1.05c-17.97,14.23-30.96,34.38-43.11,53.91-12.71,20.42-25,41.41-36.67,62.52-8.62,15.6-15.17,35.62-8.54,53.01.56,2.31.34,3.28-2.38,2.91-31.79.35-63.15.62-94.09.83-6.42.86,10.21,1.34,12.05,1.15,127.73-1.76,255.82-3.08,384.25-3.98,20.61.89,40.98.72,61.13-.49Z"/>
      <path d="M200.47,229.38c-.34-3.85-1.25-8.12-1.3-11.95-.03-1.95,1.78-2.31,2.57-1.16.45.67,1.63,14.07,1.72,16.05.06,1.38.14,8.72-.53,9.15-.22.14-1.15.03-1.5-.22-.69-.51-.8-10.08-.96-11.87Z"/>
      <path d="M210.87,232.34c-.01-3.74-3.91-8.87-3.87-9.38.1-1.28,1.79-1.44,2.89-.53,3.01,2.52,3.88,9.57,3.3,13.24-.12.73-2.1,6.08-2.38,6.27-.62.43-2.22-.5-2.36-1.28-.08-.43,2.43-5.91,2.42-8.32Z"/>
      <path d="M197.87,123.1c-4.58.71-4.42,9.57.3,9.18,5.38-.44,4.32-9.9-.3-9.18ZM200.75,105.23c-2.89-.32-6.43-.17-9.41-.47-1.4.11-1.31,1.28-1.23,2.47,3.39.05,7.78,1.09,11.1.49,1.92-.35,1.79-2.24-.46-2.49ZM221.93,125.47c.98-1.74-.58-3.22-2.21-2.21l-15.73,19.37c-.24.81.19,1.11.67,1.62.76.82,9.76,6.9,10.38,6.91,2,0,1.91-1.66.48-2.96-1.97-1.78-5.27-3.65-7.61-4.99-.3-.42.46-1.46.74-1.9,3.48-5.36,9.53-10.5,13.28-15.84ZM222.45,158.05c-1.42-2.08-2.46,1.43-3.08,2.01-1.76,1.63-4.33,1.77-6.31.47-.98-.64-2.16-2.76-2.32-2.85-.49-.28-1.27-.15-1.84-.07-1.07,4.48,4.69,6.93,8.57,6.34,2.1-.32,6.55-3.61,4.98-5.9ZM242.78,126.07c-3.51,1.02-4.25,8.77.37,9.06,5.87.38,5.17-10.68-.37-9.06ZM254.04,107.7c-.14-.2-4.08-.97-4.46-.97h-7.65c-.02.9-.22,2.08.81,2.4,1.56.49,7.56.73,9.33.59,1.19-.1,3.13-.35,1.97-2.02ZM288.82,129.92c-.64-.85,5.91-12.75,6.2-14.78.16-1.14-1.81-2.15-2.49-.99-1.94,5.48-5.69,11.44-7.19,16.99-2.4,8.89,8.87,8.61,7.89,2.03-.48-3.25-4-2.68-4.41-3.25ZM288.33,134.61c-.64-1.74,1.11-1.2,2.46-1.22.19,1.31-1.88,2.81-2.46,1.22ZM288.82,129.92c-.64-.85,5.91-12.75,6.2-14.78.16-1.14-1.81-2.15-2.49-.99-1.94,5.48-5.69,11.44-7.19,16.99-2.4,8.89,8.87,8.61,7.89,2.03-.48-3.25-4-2.68-4.41-3.25ZM288.33,134.61c-.64-1.74,1.11-1.2,2.46-1.22.19,1.31-1.88,2.81-2.46,1.22ZM254.04,107.7c-.14-.2-4.08-.97-4.46-.97h-7.65c-.02.9-.22,2.08.81,2.4,1.56.49,7.56.73,9.33.59,1.19-.1,3.13-.35,1.97-2.02ZM242.78,126.07c-3.51,1.02-4.25,8.77.37,9.06,5.87.38,5.17-10.68-.37-9.06ZM222.45,158.05c-1.42-2.08-2.46,1.43-3.08,2.01-1.76,1.63-4.33,1.77-6.31.47-.98-.64-2.16-2.76-2.32-2.85-.49-.28-1.27-.15-1.84-.07-1.07,4.48,4.69,6.93,8.57,6.34,2.1-.32,6.55-3.61,4.98-5.9ZM221.93,125.47c.98-1.74-.58-3.22-2.21-2.21l-15.73,19.37c-.24.81.19,1.11.67,1.62.76.82,9.76,6.9,10.38,6.91,2,0,1.91-1.66.48-2.96-1.97-1.78-5.27-3.65-7.61-4.99-.3-.42.46-1.46.74-1.9,3.48-5.36,9.53-10.5,13.28-15.84ZM200.75,105.23c-2.89-.32-6.43-.17-9.41-.47-1.4.11-1.31,1.28-1.23,2.47,3.39.05,7.78,1.09,11.1.49,1.92-.35,1.79-2.24-.46-2.49ZM197.87,123.1c-4.58.71-4.42,9.57.3,9.18,5.38-.44,4.32-9.9-.3-9.18ZM197.87,123.1c-4.58.71-4.42,9.57.3,9.18,5.38-.44,4.32-9.9-.3-9.18ZM200.75,105.23c-2.89-.32-6.43-.17-9.41-.47-1.4.11-1.31,1.28-1.23,2.47,3.39.05,7.78,1.09,11.1.49,1.92-.35,1.79-2.24-.46-2.49ZM221.93,125.47c.98-1.74-.58-3.22-2.21-2.21l-15.73,19.37c-.24.81.19,1.11.67,1.62.76.82,9.76,6.9,10.38,6.91,2,0,1.91-1.66.48-2.96-1.97-1.78-5.27-3.65-7.61-4.99-.3-.42.46-1.46.74-1.9,3.48-5.36,9.53-10.5,13.28-15.84ZM222.45,158.05c-1.42-2.08-2.46,1.43-3.08,2.01-1.76,1.63-4.33,1.77-6.31.47-.98-.64-2.16-2.76-2.32-2.85-.49-.28-1.27-.15-1.84-.07-1.07,4.48,4.69,6.93,8.57,6.34,2.1-.32,6.55-3.61,4.98-5.9ZM242.78,126.07c-3.51,1.02-4.25,8.77.37,9.06,5.87.38,5.17-10.68-.37-9.06ZM254.04,107.7c-.14-.2-4.08-.97-4.46-.97h-7.65c-.02.9-.22,2.08.81,2.4,1.56.49,7.56.73,9.33.59,1.19-.1,3.13-.35,1.97-2.02ZM288.82,129.92c-.64-.85,5.91-12.75,6.2-14.78.16-1.14-1.81-2.15-2.49-.99-1.94,5.48-5.69,11.44-7.19,16.99-2.4,8.89,8.87,8.61,7.89,2.03-.48-3.25-4-2.68-4.41-3.25ZM288.33,134.61c-.64-1.74,1.11-1.2,2.46-1.22.19,1.31-1.88,2.81-2.46,1.22ZM288.82,129.92c-.64-.85,5.91-12.75,6.2-14.78.16-1.14-1.81-2.15-2.49-.99-1.94,5.48-5.69,11.44-7.19,16.99-2.4,8.89,8.87,8.61,7.89,2.03-.48-3.25-4-2.68-4.41-3.25ZM288.33,134.61c-.64-1.74,1.11-1.2,2.46-1.22.19,1.31-1.88,2.81-2.46,1.22ZM249.58,106.73h-7.65c-.02.9-.22,2.08.81,2.4,1.56.49,7.56.73,9.33.59,1.19-.1,3.13-.35,1.97-2.02-.14-.2-4.08-.97-4.46-.97ZM242.78,126.07c-3.51,1.02-4.25,8.77.37,9.06,5.87.38,5.17-10.68-.37-9.06ZM219.37,160.06c-1.76,1.63-4.33,1.77-6.31.47-.98-.64-2.16-2.76-2.32-2.85-.49-.28-1.27-.15-1.84-.07-1.07,4.48,4.69,6.93,8.57,6.34,2.1-.32,6.55-3.61,4.98-5.9-1.42-2.08-2.46,1.43-3.08,2.01ZM215.52,148.2c-1.97-1.78-5.27-3.65-7.61-4.99-.3-.42.46-1.46.74-1.9,3.48-5.36,9.53-10.5,13.28-15.84.98-1.74-.58-3.22-2.21-2.21l-15.73,19.37c-.24.81.19,1.11.67,1.62.76.82,9.76,6.9,10.38,6.91,2,0,1.91-1.66.48-2.96ZM200.75,105.23c-2.89-.32-6.43-.17-9.41-.47-1.4.11-1.31,1.28-1.23,2.47,3.39.05,7.78,1.09,11.1.49,1.92-.35,1.79-2.24-.46-2.49ZM197.87,123.1c-4.58.71-4.42,9.57.3,9.18,5.38-.44,4.32-9.9-.3-9.18ZM357.92,387.55c6.6-19.42,4.89-42.17,2.95-62.43-2.63-27.44-7.81-62.13-24.27-84.79-17.15-23.63-48.56-34.67-76.4-39.34l-.37-18.37c-.02-2.06,3.72-6.81,5.31-7.52.83-.37,3.59-.7,4.66-.77,13.19-.94,27.26-.08,40.5-.95.6-.04,3.08-.3,3.22-.82.07-2.93-.18-5.91-.05-8.84,1-22.25,3.28-44.89,3.5-67.08.22-23.18-7.47-48.42-28.15-60.98l9.22-1.88c13.21-6.38,6.12-27.28-4.93-32.26-12.67-5.72-28.33,5.62-25.38,19.46l4.3,7.28c-11.54-2.6-22.97-2.81-34.55-.25-2.43.54-7.35,2.6-9.15,2.68-1.96.1-5.57-1.25-7.88-1.43-38.83-3.13-66.74,35.63-44.73,69.75-11.04,10.4-10.61,28.85,2.06,37.68.5,16.94,5.5,33.27,20.27,42.8,8.53,5.5,19.49,7.82,29.57,8.18l-.03,12.81c-10.15,1.55-20.49,4.9-29.59,9.64-1.58.82-7.51,4.95-8.26,5.11-2.17.45-4.35-3.92-5.51-.24.2,1.23,2.8,1.57,2.42,2.54-.23.58-4.53,3.6-5.43,4.44-20.37,19-35.01,44.94-49.25,68.7-8.33,13.91-17.26,28.49-24.86,42.76-8.89,16.68-16.5,37.65-8.31,56.1-8.96.12-17.94-.15-26.91-.02-17.67.25-35.6.6-53.26,1.03-4.9.11-12.94-.79-17.29-.02-1.87.33-1.85,2.23.46,2.49,9.33,1.04,23.3.08,33.12,0,119.98-1.03,240.22-2.78,360.23-3.51,19.9-.12,41.62,1.23,61.24.05,1.41-.09,2.74-.67,4.18-.52v-2.46l-102.65.98ZM189.12,219.47c2.74,2.79,4.25,7.49,3.95,11.38-.15,1.87-2.59,7.84-2.45,8.35.23.78,1.81,1.08,2.39.72.29-.18,2.29-5.46,2.41-6.22.95-6.12-.35-11.71-4.32-16.41,8.67-5.2,17.81-9.67,27.63-12.34,2.91,32.1,44.63,27.87,52.84.99,25.94,5.85,52.26,17.84,66.51,41.3,13.67,22.53,18.04,55.81,20.32,81.83,1.31,14.87,2.56,32.05-.15,46.73-.73,3.95-1.87,7.48-3.37,11.19-19.09,1.24-38.31.19-57.45.54-3.1.06-6.49,1.07-9.74.41-7.91-5.65-16.22-11.07-23.78-17.18-2.16-1.74-12.41-10.41-12.9-12.3-.16-.61,4.77-4.62,5.74-5.69,9.14-10.01,16.92-28.03,14.8-41.71l54.75,39.28c1.05.27,2.09-1.77,1.05-2.55l-14.35-11.06c2.43-.41,4.21.84,6.25,1.88,6.11,3.11,11.79,8,17.81,11.36,4.18-.94.93-2.56-1-3.98-4.46-3.29-17.86-12.43-22.89-12.71-1.73-.09-2.41,1.3-4.08.93-.54-3.27-.83-6.77-1.02-10.08-.85-14.82-.33-30.12-1.98-44.91-.09-.79-.46-2.93-1.25-3.19-2.36-.76-1.78,4.26-1.73,5.68.38,10.5,1.56,21.05,2.01,31.55.27,6.15.29,12.37.47,18.52-7.11-5.07-13.83-10.77-21.06-15.7-2.37-1.62-12.18-8.27-14.27-8.47-2.17-.21-1.71.28-2.18,1.71-.66,2.05-1.03-.06-1.69-.74-6.78-7.08-13.74-14.85-23.4-17.83-.28-4.86.49-9.63.44-14.51-.05-5.62-.5-16.12-1.71-21.48-.95-4.19-7.04-6.47-10.76-7.5-13.18-3.64-45.54-2.67-57,5.45-6.02,4.26-5.11,8.76-4.09,15.41-9.63-.27-18.57,6.21-24.18,13.59l-4.93.23,11.14-18.71c10.57-15.94,21.54-32.48,37.22-43.76ZM177.77,133.88c-10.06-9.18-9.2-23.13-.73-33.07.34,0,3.3,2.75,3.44,2.97.79,1.27-1.94,14.23-2.21,17.02-.43,4.32-.51,8.74-.5,13.08ZM189.62,83.04c5.87,1.52,11.98,1.74,18.03,1.5,10.17-.39,26.81-2.47,35.78-7.15.87-.45,5.59-4.01,5.9-3.72,3.31,15.88,11.71,36.71,29.59,39.99l-1.42,18.2c1.9,1.08,2.55-.14,3.29-1.81,2.4-5.43.53-10.47,5.31-15.92,3.21-3.67,6.73-3.95,11.1-5.18,2.7-.77,2.25-2.47,4.93.51,7.32,8.15,4.3,23.58-4.18,29.85-4.94,3.64-9,3.05-14.07,4.68-4.01,1.29-4.4,6.82-5.99,10.3-4.35,9.54-11.31,19.36-20.56,24.6-.87,8.39,1.13,16.98.41,25.34-1.06,12.46-26.37,11.95-27.65-.02-.41-3.81.3-8.22-.01-12.1,4.82-.16,10.13-.91,14.51-3.02,2.72-1.3,3.79-2.04,3.26-5.37-12.04,2.22-25.09,2.15-36.9-1.35-42.1-12.46-31.5-67.69-21.33-99.33ZM268.58,205.71c.28,1.29-5.2,8.99-6.43,10.33-11.41,12.49-34.56,12.44-39.71-5.66-1.86-6.51-1.01-6.18,5.18-7.41-.08,17.32,32.48,17.8,32.58.5,1.25.53,8.15,1.17,8.38,2.24ZM156.06,389.03h-10.37c4.28-6.62,8.44-13.37,12.34-20.23.64.24.47.94.49,1.48.22,5.7-2.11,12.94-2.46,18.75ZM169.98,321.52c1.97.53,10.83-3.59,11.42-3.48.28.06,3.49,2.92,4.42,3.48,4.95,2.99,11.62,4.46,17.37,4.83,1.92.12,12.15-.45,12.58.01.1.1-.02,1.88.38,2.83.67,1.63,2.82,2.13,3.32,3.1.88,1.71.74,4.24,2.31,6.57,1.15,1.71,7.81,7.66,9.68,8.58,4.5,2.21,11.06,3.34,15.9,2.11.48.65-1.9,7.33-1.04,8.66.5.76,2.02,1.4,2.78,2.19,1.03,1.06,1.74,2.28,2.69,3.23,9.24,9.32,20.49,16.26,30.61,24.41l-123.38.99c3.11-22.56,5.7-45.36,10.96-67.51ZM251.27,304.18c-1.19-.94-9.46,2.78-9.83,2.43,1.12-4.1.76-8.42,1.5-12.57.11-.62-.36-.92.66-.7,8.6,1.89,19.41,16.25,25.5,22.38.87,1.51-.23,6.32-.66,8.27-1.8,8.09-6.07,16.92-11.23,23.36-8.47-.85-16.98,1.78-25.15-1.75-.12-.85,1.18-.53,1.72-.48,5.65.46,10.52.7,16.23-.07,1.23-.17,4.35-.33,3.76-2.16-.52-1.63-7.07.16-8.64.24-8.17.42-21.28.35-22.94-9.86,5.34,1.57,10.98,1.77,16.53,1.47,2.18-.11,9.69-.8,11.35-1.48,2.15-.89,1.46-2.5-.47-2.49-9.34.07-17.25,3.49-27.05-.08-6.33-2.31-5.64-6.46.93-7.24,7.43-.88,13.67-.49,21.42-2.27.96-.22,6.65-1.48,6.88-1.76.46-.54.2-2.49-1.47-2.25-3.54.53-7.5,2-11.25,2.61-7.35,1.21-15.5,1.73-22.81-.07-1.26-.31-3.52-.53-3.44-2.23l38.5-11.62c.66-.02.07-1.59-.04-1.68ZM254.76,350.05c-.28.82-5.07,5.38-5.42,4.93.61-4.63.3-5.55,5.42-4.93ZM238.39,307.51c-5.81,1.81-11.87,2.98-17.68,4.78-2.64.82-10.07,2.44-10.36,5.48-.34,3.53,4.88,4.2,7.4,4.64.11.72-.87.69-1.38.83-5.8,1.64-19.82.01-25.45-2.38-8.36-3.56-12.01-10.79-13.58-19.39,8.69-3.9,6.46-8.25-2.05-9.48l-2.96-25.09.26-1.25c.72.84,1.88,1.04,2.71,1.48.07.04.18.34.5.5,13.39,6.27,44.57,5.14,58.07-.91,1.09-.48,5.6-3.54,6.08-3.04.37,14.63,1.03,29.39-1.56,43.83ZM237,261.46c-4.81,4.31-4.28.32-8.55-1.82-10.19-5.09-36.93-4.43-46.89,1.16-3.63,2.04-3.47,5.89-7.75,2.15-2.12-1.85-2.48-3.1-1.07-5.54,3.45-5.99,22.05-8.92,28.62-9.38,7.97-.56,31.38-.99,36.83,5.32,2.5,2.89,1.36,5.83-1.19,8.11ZM172.35,292.3c-5.66-1.01-13.51,4.13-13.86-4.68-.14-3.57,2.94-7.95,6.74-8.12.97-.04,5.1,1.57,5.64,2.18.39.45,1.85,10.24,1.48,10.62ZM157.54,292.79c-1.37.1-2.69-.1-3.91-.78-1.42-.78-3.39-5.1-4.75-3.18-.77,1.45.71,3.24,1.78,4.18,5.15,4.54,19.33.99,26.38,1.75,4.88.52,3.33,2.39.08,4.05-6.42,3.28-17.14,4.91-24.27,4.35-1.52-.12-5.02-1.78-5.95-.52-1.16,1.59,1.35,2.14,2.55,2.44,8.69,2.16,16.92-.42,25.36-2.42.09,3.14,1.56,5.97,2.47,8.89-4.9.85-9.55,3.05-14.57,3.45-5.55.43-10.11-.98-15.36-1.43-.66-.06-1.57.49-1.64.45-.46-.32-3.52-9-3.82-10.27-.69-2.9-1.79-8.7-.86-11.43.49-1.46,7.18-10.08,8.62-11.6,2.92-3.08,7.28-6.37,11.17-8.09,1.68-.74,7.7-3.18,8.95-1.44.75,1.04.58,6.16,1.09,7.79-8.72-6.28-19.34,5.27-13.32,13.81ZM156.31,317.47c3.73.2,7.45-.07,11.12-.71,1.87-.33,10.74-3.46,11.25-3.16.26.15,1.35,2.56,1.07,2.88-8.74,2.89-17.1,4.7-26.43,3.97-3.62-.28-4.34-.54-6.14-3.72,2.96-.62,6.14.57,9.13.74ZM166.91,321.91l-.49,3.95-1.97-3.45,2.46-.5ZM137.3,288.85c.48.13.46.57.5.98.37,4.91.07,8.8,1.22,13.84,2.59,11.44,11.64,27.31,24.93,27.13-1.46,6.35-24.01,45.74-23.15,48.54.46,1.51,2.4.72,2.84-.5,6.22-12.75,12.93-25.27,18.83-38.17l.5.49c-.91,6.04-1.43,12.16-2.86,18.12l-17.48,29.65-39.63.6c-2.29-.43-4.47-8.8-4.68-11.11-1.46-15.82,3.82-29.55,11.26-43.02,8.3-15.03,18.37-32.2,27.72-46.55ZM293.23,133.17c-.48-3.25-4-2.68-4.41-3.25-.64-.85,5.91-12.75,6.2-14.78.16-1.14-1.81-2.15-2.49-.99-1.94,5.48-5.69,11.44-7.19,16.99-2.4,8.89,8.87,8.61,7.89,2.03ZM290.79,133.39c.19,1.31-1.88,2.81-2.46,1.22-.64-1.74,1.11-1.2,2.46-1.22ZM242.74,109.13c1.56.49,7.56.73,9.33.59,1.19-.1,3.13-.35,1.97-2.02-.14-.2-4.08-.97-4.46-.97h-7.65c-.02.9-.22,2.08.81,2.4ZM243.15,135.13c5.87.38,5.17-10.68-.37-9.06-3.51,1.02-4.25,8.77.37,9.06ZM219.37,160.06c-1.76,1.63-4.33,1.77-6.31.47-.98-.64-2.16-2.76-2.32-2.85-.49-.28-1.27-.15-1.84-.07-1.07,4.48,4.69,6.93,8.57,6.34,2.1-.32,6.55-3.61,4.98-5.9-1.42-2.08-2.46,1.43-3.08,2.01ZM215.04,151.16c2,0,1.91-1.66.48-2.96-1.97-1.78-5.27-3.65-7.61-4.99-.3-.42.46-1.46.74-1.9,3.48-5.36,9.53-10.5,13.28-15.84.98-1.74-.58-3.22-2.21-2.21l-15.73,19.37c-.24.81.19,1.11.67,1.62.76.82,9.76,6.9,10.38,6.91ZM201.21,107.72c1.92-.35,1.79-2.24-.46-2.49-2.89-.32-6.43-.17-9.41-.47-1.4.11-1.31,1.28-1.23,2.47,3.39.05,7.78,1.09,11.1.49ZM197.87,123.1c-4.58.71-4.42,9.57.3,9.18,5.38-.44,4.32-9.9-.3-9.18ZM197.87,123.1c-4.58.71-4.42,9.57.3,9.18,5.38-.44,4.32-9.9-.3-9.18ZM200.75,105.23c-2.89-.32-6.43-.17-9.41-.47-1.4.11-1.31,1.28-1.23,2.47,3.39.05,7.78,1.09,11.1.49,1.92-.35,1.79-2.24-.46-2.49ZM221.93,125.47c.98-1.74-.58-3.22-2.21-2.21l-15.73,19.37c-.24.81.19,1.11.67,1.62.76.82,9.76,6.9,10.38,6.91,2,0,1.91-1.66.48-2.96-1.97-1.78-5.27-3.65-7.61-4.99-.3-.42.46-1.46.74-1.9,3.48-5.36,9.53-10.5,13.28-15.84ZM222.45,158.05c-1.42-2.08-2.46,1.43-3.08,2.01-1.76,1.63-4.33,1.77-6.31.47-.98-.64-2.16-2.76-2.32-2.85-.49-.28-1.27-.15-1.84-.07-1.07,4.48,4.69,6.93,8.57,6.34,2.1-.32,6.55-3.61,4.98-5.9ZM242.78,126.07c-3.51,1.02-4.25,8.77.37,9.06,5.87.38,5.17-10.68-.37-9.06ZM254.04,107.7c-.14-.2-4.08-.97-4.46-.97h-7.65c-.02.9-.22,2.08.81,2.4,1.56.49,7.56.73,9.33.59,1.19-.1,3.13-.35,1.97-2.02ZM288.82,129.92c-.64-.85,5.91-12.75,6.2-14.78.16-1.14-1.81-2.15-2.49-.99-1.94,5.48-5.69,11.44-7.19,16.99-2.4,8.89,8.87,8.61,7.89,2.03-.48-3.25-4-2.68-4.41-3.25ZM288.33,134.61c-.64-1.74,1.11-1.2,2.46-1.22.19,1.31-1.88,2.81-2.46,1.22ZM288.82,129.92c-.64-.85,5.91-12.75,6.2-14.78.16-1.14-1.81-2.15-2.49-.99-1.94,5.48-5.69,11.44-7.19,16.99-2.4,8.89,8.87,8.61,7.89,2.03-.48-3.25-4-2.68-4.41-3.25ZM288.33,134.61c-.64-1.74,1.11-1.2,2.46-1.22.19,1.31-1.88,2.81-2.46,1.22ZM254.04,107.7c-.14-.2-4.08-.97-4.46-.97h-7.65c-.02.9-.22,2.08.81,2.4,1.56.49,7.56.73,9.33.59,1.19-.1,3.13-.35,1.97-2.02ZM242.78,126.07c-3.51,1.02-4.25,8.77.37,9.06,5.87.38,5.17-10.68-.37-9.06ZM222.45,158.05c-1.42-2.08-2.46,1.43-3.08,2.01-1.76,1.63-4.33,1.77-6.31.47-.98-.64-2.16-2.76-2.32-2.85-.49-.28-1.27-.15-1.84-.07-1.07,4.48,4.69,6.93,8.57,6.34,2.1-.32,6.55-3.61,4.98-5.9ZM221.93,125.47c.98-1.74-.58-3.22-2.21-2.21l-15.73,19.37c-.24.81.19,1.11.67,1.62.76.82,9.76,6.9,10.38,6.91,2,0,1.91-1.66.48-2.96-1.97-1.78-5.27-3.65-7.61-4.99-.3-.42.46-1.46.74-1.9,3.48-5.36,9.53-10.5,13.28-15.84ZM200.75,105.23c-2.89-.32-6.43-.17-9.41-.47-1.4.11-1.31,1.28-1.23,2.47,3.39.05,7.78,1.09,11.1.49,1.92-.35,1.79-2.24-.46-2.49ZM197.87,123.1c-4.58.71-4.42,9.57.3,9.18,5.38-.44,4.32-9.9-.3-9.18Z"/>
      <path class="cls-10" d="M203.46,232.32c.06,1.38.14,8.72-.53,9.15-.22.14-1.15.03-1.5-.22-.69-.51-.8-10.08-.96-11.87-.34-3.85-1.25-8.12-1.3-11.95-.03-1.95,1.78-2.31,2.57-1.16.45.67,1.63,14.07,1.72,16.05Z"/>
      <path class="cls-10" d="M213.19,235.67c-.12.73-2.1,6.08-2.38,6.27-.62.43-2.22-.5-2.36-1.28-.08-.43,2.43-5.91,2.42-8.32-.01-3.74-3.91-8.87-3.87-9.38.1-1.28,1.79-1.44,2.89-.53,3.01,2.52,3.88,9.57,3.3,13.24Z"/>
      <path class="cls-10" d="M198.17,132.28c-4.72.39-4.88-8.47-.3-9.18,4.62-.72,5.68,8.74.3,9.18Z"/>
      <path class="cls-10" d="M201.21,107.72c-3.32.6-7.71-.44-11.1-.49-.08-1.19-.17-2.36,1.23-2.47,2.98.3,6.52.15,9.41.47,2.25.25,2.38,2.14.46,2.49Z"/>
      <path class="cls-10" d="M215.04,151.16c-.62-.01-9.62-6.09-10.38-6.91-.48-.51-.91-.81-.67-1.62l15.73-19.37c1.63-1.01,3.19.47,2.21,2.21-3.75,5.34-9.8,10.48-13.28,15.84-.28.44-1.04,1.48-.74,1.9,2.34,1.34,5.64,3.21,7.61,4.99,1.43,1.3,1.52,2.96-.48,2.96Z"/>
      <path class="cls-10" d="M222.45,158.05c1.57,2.29-2.88,5.58-4.98,5.9-3.88.59-9.64-1.86-8.57-6.34.57-.08,1.35-.21,1.84.07.16.09,1.34,2.21,2.32,2.85,1.98,1.3,4.55,1.16,6.31-.47.62-.58,1.66-4.09,3.08-2.01Z"/>
      <path class="cls-10" d="M243.15,135.13c-4.62-.29-3.88-8.04-.37-9.06,5.54-1.62,6.24,9.44.37,9.06Z"/>
      <path class="cls-10" d="M254.04,107.7c1.16,1.67-.78,1.92-1.97,2.02-1.77.14-7.77-.1-9.33-.59-1.03-.32-.83-1.5-.81-2.4h7.65c.38,0,4.32.77,4.46.97Z"/>
      <path class="cls-10" d="M288.82,129.92c-.64-.85,5.91-12.75,6.2-14.78.16-1.14-1.81-2.15-2.49-.99-1.94,5.48-5.69,11.44-7.19,16.99-2.4,8.89,8.87,8.61,7.89,2.03-.48-3.25-4-2.68-4.41-3.25ZM288.33,134.61c-.64-1.74,1.11-1.2,2.46-1.22.19,1.31-1.88,2.81-2.46,1.22Z"/>
      <path class="cls-10" d="M137.8,289.83c-.04-.41-.02-.85-.5-.98.04-.07.08-.14.13-.21.43-.59.54-.19.37,1.19Z"/>
      <path class="cls-10" d="M163,341.05s-.03.08-.03.11l-.5-.49c.61-.63.74-.4.53.38Z"/>
      <path class="cls-10" d="M175.8,267.63c-.32-.16-.43-.46-.5-.5.22-.2.39-.04.5.5Z"/>
      <path class="cls-11" d="M158.52,370.28c-.02-.54.15-1.24-.49-1.48.93-.67.91.67.49,1.48Z"/>
      <path class="cls-4" d="M158.52,370.28c-.02-.54.15-1.24-.49-1.48.38-.66.31-1.64.98-1.48-.07.93.39,2.42-.49,2.96Z"/>
      <path class="cls-7" d="M175.8,267.63c-.32-.16-.43-.46-.5-.5.11-.84-.39-2.15.49-1.97v2.47Z"/>
      <path class="cls-9" d="M138.28,287.86l-.48,1.97c-.04-.41-.02-.85-.5-.98.04-.07.08-.14.13-.21.19-.36.38-.77.85-.78Z"/>
      <path class="cls-2" d="M163,341.05s-.03.08-.03.11l-.5-.49c.31-.68.37-1.64.98-1.48.37.77-.28,1.49-.45,1.86Z"/>
      <path class="cls-3" d="M202.93,241.47c-.22.14-1.15.03-1.5-.22-.69-.51-.8-10.08-.96-11.87-.34-3.85-1.25-8.12-1.3-11.95-.03-1.95,1.78-2.31,2.57-1.16.45.67,1.63,14.07,1.72,16.05.06,1.38.14,8.72-.53,9.15Z"/>
      <path class="cls-8" d="M213.19,235.67c-.12.73-2.1,6.08-2.38,6.27-.62.43-2.22-.5-2.36-1.28-.08-.43,2.43-5.91,2.42-8.32-.01-3.74-3.91-8.87-3.87-9.38.1-1.28,1.79-1.44,2.89-.53,3.01,2.52,3.88,9.57,3.3,13.24Z"/>
      <path class="cls-1" d="M208.65,141.31c-.28.44-1.04,1.48-.74,1.9,2.34,1.34,5.64,3.21,7.61,4.99,1.43,1.3,1.52,2.96-.48,2.96-.62-.01-9.62-6.09-10.38-6.91-.48-.51-.91-.81-.67-1.62l15.73-19.37c1.63-1.01,3.19.47,2.21,2.21-3.75,5.34-9.8,10.48-13.28,15.84Z"/>
      <path class="cls-1" d="M288.82,129.92c-.64-.85,5.91-12.75,6.2-14.78.16-1.14-1.81-2.15-2.49-.99-1.94,5.48-5.69,11.44-7.19,16.99-2.4,8.89,8.87,8.61,7.89,2.03-.48-3.25-4-2.68-4.41-3.25ZM288.33,134.61c-.64-1.74,1.11-1.2,2.46-1.22.19,1.31-1.88,2.81-2.46,1.22Z"/>
      <path class="cls-3" d="M243.15,135.13c-4.62-.29-3.88-8.04-.37-9.06,5.54-1.62,6.24,9.44.37,9.06Z"/>
      <path class="cls-3" d="M198.17,132.28c-4.72.39-4.88-8.47-.3-9.18,4.62-.72,5.68,8.74.3,9.18Z"/>
      <path class="cls-3" d="M217.47,163.95c-3.88.59-9.64-1.86-8.57-6.34.57-.08,1.35-.21,1.84.07.16.09,1.34,2.21,2.32,2.85,1.98,1.3,4.55,1.16,6.31-.47.62-.58,1.66-4.09,3.08-2.01,1.57,2.29-2.88,5.58-4.98,5.9Z"/>
      <path class="cls-6" d="M252.07,109.72c-1.77.14-7.77-.1-9.33-.59-1.03-.32-.83-1.5-.81-2.4h7.65c.38,0,4.32.77,4.46.97,1.16,1.67-.78,1.92-1.97,2.02Z"/>
      <path class="cls-5" d="M201.21,107.72c-3.32.6-7.71-.44-11.1-.49-.08-1.19-.17-2.36,1.23-2.47,2.98.3,6.52.15,9.41.47,2.25.25,2.38,2.14.46,2.49Z"/>
    </g>
  </g>
</svg>