<svg width="816" height="190" viewBox="0 0 816 190" fill="none" xmlns="http://www.w3.org/2000/svg">
<g clip-path="url(#clip0_1299_2)">
<path d="M0 133.896L12.4169 111.546C17.3837 114.581 23.1438 116.926 29.6972 118.582C36.2506 120.237 42.7695 121.065 49.2539 121.065C58.2217 121.065 62.7056 118.651 62.7056 113.822C62.7056 111.339 61.4639 109.476 58.9805 108.234C56.4971 106.993 52.3581 106.165 46.5635 105.751C33.5947 105.061 23.2818 101.819 15.6247 96.0244C7.96754 90.2298 4.13898 82.6417 4.13898 73.26C4.13898 63.0505 8.27796 54.945 16.5559 48.9435C24.8339 42.9419 36.0091 39.9412 50.0817 39.9412C58.0837 39.9412 65.7063 40.9069 72.9495 42.8385C80.1927 44.77 86.4357 47.4603 91.6784 50.9095L79.0545 72.6391C71.3284 68.2242 62.1537 66.0168 51.5303 66.0168C40.9069 66.0168 35.8022 68.5001 35.8022 73.4669C35.8022 75.5364 36.8714 77.123 39.0099 78.2267C41.1484 79.3305 44.77 80.1583 49.8747 80.7101C64.4991 81.8139 75.6399 85.125 83.297 90.6437C90.9541 96.1623 94.7827 103.888 94.7827 113.822C94.7827 124.307 90.5747 132.551 82.1588 138.552C73.7428 144.554 62.0847 147.555 47.1844 147.555C29.1108 147.555 13.3827 143.002 0 133.896Z" fill="black"/>
<path d="M384.304 51.7373C391.754 59.3254 395.48 69.7418 395.48 82.9866V144.864H362.989V87.1256C362.989 81.0551 361.574 76.3297 358.746 72.9495C355.918 69.5694 351.951 67.8793 346.847 67.8793C341.19 67.8793 336.706 69.8108 333.395 73.6739C330.084 77.5369 328.428 82.6417 328.428 88.9881V144.864H296.144V87.1256C296.144 81.0551 294.764 76.3297 292.005 72.9495C289.246 69.5694 285.314 67.8793 280.209 67.8793C274.552 67.8793 270.034 69.8108 266.654 73.6739C263.274 77.5369 261.584 82.6417 261.584 88.9881V144.864H229.093V42.6315H257.238L259.1 54.0137C262.687 49.5988 266.999 46.2186 272.034 43.8732C277.07 41.5278 282.485 40.3551 288.28 40.3551C294.902 40.3551 300.835 41.7692 306.078 44.5975C311.32 47.4258 315.459 51.3234 318.494 56.2901C326.772 45.6668 338.5 40.3551 353.676 40.3551C366.645 40.3551 376.854 44.1491 384.304 51.7373Z" fill="black"/>
<path d="M508.266 47.2878C515.717 51.7717 521.511 58.0492 525.65 66.1202C529.789 74.1912 531.859 83.4004 531.859 93.7479C531.859 104.095 529.789 113.305 525.65 121.376C521.511 129.447 515.717 135.724 508.266 140.208C500.816 144.692 492.331 146.934 482.812 146.934C470.119 146.934 459.564 142.933 451.148 134.931V189.151H418.657V42.6315H446.803L448.872 54.6345C457.426 45.2528 468.739 40.562 482.812 40.562C492.331 40.562 500.816 42.8039 508.266 47.2878ZM492.745 112.477C497.298 107.717 499.575 101.474 499.575 93.7479C499.575 86.0218 497.298 79.7788 492.745 75.019C488.192 70.2592 482.329 67.8793 475.155 67.8793C467.98 67.8793 462.151 70.2937 457.667 75.1225C453.183 79.9513 450.942 86.1597 450.942 93.7479C450.942 101.336 453.183 107.544 457.667 112.373C462.151 117.202 467.98 119.617 475.155 119.617C482.329 119.617 488.192 117.237 492.745 112.477Z" fill="black"/>
<path d="M550.278 1.52588e-05H582.769V144.864H550.278V1.52588e-05Z" fill="black"/>
<path d="M685.415 46.667C693.555 50.875 699.798 56.8075 704.144 64.4646C708.49 72.1217 710.663 81.055 710.663 91.2645C710.663 94.5757 710.318 98.6457 709.628 103.475H634.506C635.472 108.717 638.3 112.96 642.991 116.202C647.682 119.444 653.683 121.065 660.995 121.065C666.1 121.065 671.067 120.306 675.896 118.789C680.725 117.271 684.863 115.133 688.313 112.373L705.282 130.585C699.488 135.966 692.624 140.104 684.691 143.002C676.758 145.899 668.308 147.348 659.34 147.348C647.475 147.348 637.196 145.175 628.504 140.829C619.813 136.483 613.121 130.309 608.43 122.307C603.739 114.305 601.394 104.854 601.394 93.9549C601.394 83.0556 603.705 74.1567 608.327 66.0167C612.949 57.8768 619.399 51.5648 627.677 47.0809C635.955 42.597 645.543 40.3551 656.443 40.3551C667.342 40.3551 677.275 42.4591 685.415 46.667ZM641.646 70.9835C637.576 74.2947 635.265 78.9166 634.713 84.8491H679.828C679.414 78.9166 677.241 74.2947 673.309 70.9835C669.377 67.6723 664.1 66.0167 657.477 66.0167C650.855 66.0167 645.716 67.6723 641.646 70.9835Z" fill="black"/>
<path d="M721.218 133.896L733.635 111.546C738.601 114.581 744.362 116.926 750.915 118.582C757.468 120.237 763.987 121.065 770.472 121.065C779.439 121.065 783.923 118.651 783.923 113.822C783.923 111.339 782.682 109.476 780.198 108.234C777.715 106.993 773.576 106.165 767.781 105.751C754.812 105.061 744.5 101.819 736.842 96.0244C729.185 90.2298 725.357 82.6417 725.357 73.26C725.357 63.0505 729.496 54.945 737.774 48.9435C746.052 42.9419 757.227 39.9412 771.299 39.9412C779.301 39.9412 786.924 40.9069 794.167 42.8385C801.41 44.77 807.653 47.4603 812.896 50.9095L800.272 72.6391C792.546 68.2242 783.371 66.0168 772.748 66.0168C762.125 66.0168 757.02 68.5001 757.02 73.4669C757.02 75.5364 758.089 77.123 760.228 78.2267C762.366 79.3305 765.988 80.1583 771.092 80.7101C785.717 81.8139 796.858 85.125 804.515 90.6437C812.172 96.1623 816 103.888 816 113.822C816 124.307 811.792 132.551 803.377 138.552C794.961 144.554 783.302 147.555 768.402 147.555C750.329 147.555 734.6 143.002 721.218 133.896Z" fill="black"/>
<path d="M182.115 41.5967L169.077 73.8808L157.074 107.2L150.21 86.7461H116.926L138.655 141.829H173.699L217.296 41.5967H182.115Z" fill="url(#paint0_linear_1299_2)"/>
<path d="M150.211 86.7461H116.926L99.1287 41.5967H134.103L145.899 73.8808L150.211 86.7461Z" fill="black"/>
<path d="M173.699 141.829L164.421 163.11H129.86L138.862 142.381L138.655 141.829H173.699Z" fill="black"/>
</g>
<defs>
<linearGradient id="paint0_linear_1299_2" x1="167.111" y1="41.5967" x2="167.111" y2="141.829" gradientUnits="userSpaceOnUse">
<stop stop-color="#41AB34"/>
<stop offset="1" stop-color="#7DB928"/>
</linearGradient>
<clipPath id="clip0_1299_2">
<rect width="816" height="189.151" fill="white"/>
</clipPath>
</defs>
</svg>
