<svg width="1302" height="302" viewBox="0 0 1302 302" fill="none" xmlns="http://www.w3.org/2000/svg">
<g clip-path="url(#clip0_1352_2)">
<path d="M0 213.61L19.81 177.95C27.73 182.79 36.92 186.53 47.38 189.18C57.84 191.82 68.24 193.14 78.58 193.14C92.89 193.14 100.04 189.29 100.04 181.58C100.04 177.62 98.06 174.65 94.1 172.67C90.14 170.69 83.54 169.37 74.29 168.71C53.6 167.61 37.15 162.44 24.93 153.19C12.71 143.94 6.61 131.84 6.61 116.87C6.61 100.58 13.21 87.65 26.42 78.08C39.63 68.5 57.45 63.72 79.91 63.72C92.68 63.72 104.84 65.26 116.39 68.34C127.95 71.42 137.9 75.71 146.27 81.22L126.13 115.89C113.8 108.85 99.17 105.33 82.22 105.33C65.27 105.33 57.13 109.29 57.13 117.22C57.13 120.52 58.84 123.05 62.25 124.81C65.66 126.57 71.44 127.89 79.58 128.77C102.91 130.53 120.69 135.81 132.9 144.62C145.12 153.42 151.22 165.75 151.22 181.6C151.22 198.33 144.51 211.48 131.08 221.05C117.65 230.63 99.05 235.41 75.28 235.41C46.45 235.41 21.35 228.15 0 213.62L0 213.61Z" fill="white"/>
<path d="M613.11 82.54C625 94.65 630.94 111.26 630.94 132.39V231.11H579.11V139C579.11 129.32 576.85 121.78 572.34 116.38C567.83 110.99 561.5 108.29 553.36 108.29C544.34 108.29 537.18 111.37 531.9 117.54C526.62 123.7 523.98 131.85 523.98 141.97V231.11H472.47V139C472.47 129.32 470.27 121.78 465.87 116.38C461.47 110.99 455.19 108.29 447.05 108.29C438.03 108.29 430.82 111.37 425.42 117.54C420.03 123.7 417.33 131.85 417.33 141.97V231.11H365.5V68.01H410.4L413.37 86.17C419.09 79.13 425.97 73.73 434 69.99C442.03 66.25 450.67 64.38 459.92 64.38C470.49 64.38 479.95 66.64 488.31 71.15C496.68 75.66 503.28 81.88 508.12 89.8C521.33 72.85 540.04 64.38 564.25 64.38C584.94 64.38 601.23 70.43 613.11 82.54Z" fill="white"/>
<path d="M838.62 105.47C832.01 92.61 822.75 82.59 810.89 75.45C798.99 68.28 785.44 64.71 770.26 64.71C747.82 64.71 729.79 72.2 716.12 87.15L712.83 67.99H667.91V301.74H719.77V215.26C733.19 228 750.03 234.42 770.26 234.42C785.45 234.42 798.99 230.81 810.89 223.68C822.75 216.51 832.01 206.49 838.62 193.62C845.19 180.76 848.52 166.05 848.52 149.54C848.52 133.03 845.19 118.36 838.62 105.46V105.47ZM786.12 179.45C778.83 187.02 769.49 190.83 758.03 190.83C746.57 190.83 737.31 186.98 730.14 179.29C723.01 171.56 719.4 161.66 719.4 149.56C719.4 137.46 723.01 127.56 730.14 119.87C737.31 112.14 746.61 108.29 758.03 108.29C769.45 108.29 778.83 112.1 786.12 119.71C793.37 127.28 796.98 137.26 796.98 149.56C796.98 161.86 793.37 171.84 786.12 179.46V179.45Z" fill="white"/>
<path d="M877.9 0H929.74V231.11H877.9V0Z" fill="white"/>
<path d="M1133.77 145.59C1133.77 129.32 1130.32 115.05 1123.39 102.83C1116.46 90.65 1106.48 81.15 1093.49 74.46C1080.51 67.73 1064.64 64.4 1047.29 64.4C1029.94 64.4 1014.59 67.97 1001.37 75.1C988.19 82.27 977.89 92.33 970.51 105.32C963.14 118.3 959.45 132.53 959.45 149.88C959.45 167.23 963.18 182.38 970.67 195.12C978.16 207.9 988.82 217.76 1002.69 224.69C1016.56 231.62 1032.99 235.07 1051.9 235.07C1066.21 235.07 1079.67 232.75 1092.33 228.14C1104.99 223.53 1115.93 216.92 1125.19 208.34L1098.1 179.29C1092.61 183.7 1086 187.1 1078.3 189.51C1070.61 191.95 1062.67 193.16 1054.54 193.16C1042.88 193.16 1033.3 190.56 1025.81 185.39C1018.32 180.22 1013.83 173.45 1012.27 165.07H1132.13C1133.21 157.38 1133.77 150.88 1133.77 145.59ZM1012.63 135.37C1013.51 125.91 1017.16 118.54 1023.69 113.25C1030.14 107.96 1038.36 105.32 1048.94 105.32C1059.52 105.32 1067.89 107.96 1074.19 113.25C1080.48 118.54 1083.93 125.91 1084.61 135.37H1012.64H1012.63Z" fill="white"/>
<path d="M1150.61 213.61L1170.41 177.95C1178.34 182.79 1187.53 186.53 1197.98 189.18C1208.43 191.82 1218.83 193.14 1229.19 193.14C1243.49 193.14 1250.64 189.29 1250.64 181.58C1250.64 177.62 1248.67 174.65 1244.7 172.67C1240.74 170.69 1234.14 169.37 1224.89 168.71C1204.21 167.61 1187.76 162.44 1175.53 153.19C1163.32 143.94 1157.21 131.84 1157.21 116.87C1157.21 100.58 1163.82 87.65 1177.02 78.08C1190.22 68.5 1208.05 63.72 1230.51 63.72C1243.28 63.72 1255.44 65.26 1267 68.34C1278.56 71.42 1288.51 75.71 1296.88 81.22L1276.73 115.89C1264.41 108.85 1249.76 105.33 1232.82 105.33C1215.88 105.33 1207.74 109.29 1207.74 117.22C1207.74 120.52 1209.44 123.05 1212.85 124.81C1216.27 126.57 1222.05 127.89 1230.18 128.77C1253.51 130.53 1271.29 135.81 1283.51 144.62C1295.72 153.42 1301.83 165.75 1301.83 181.6C1301.83 198.33 1295.12 211.48 1281.7 221.05C1268.27 230.63 1249.68 235.41 1225.9 235.41C1197.07 235.41 1171.98 228.15 1150.63 213.62L1150.61 213.61Z" fill="white"/>
<path d="M356.514 38.95L287.398 197.835H223.955L173.346 75.4656H233.6L257.293 135.13L279.023 74.8301L293.491 38.95H356.514Z" fill="url(#paint0_linear_1352_2)"/>
<path d="M280.135 218.476L263.341 257H200.772L217.067 219.474L216.693 218.476H280.135Z" fill="white"/>
</g>
<defs>
<linearGradient id="paint0_linear_1352_2" x1="264.93" y1="197.835" x2="264.93" y2="38.95" gradientUnits="userSpaceOnUse">
<stop stop-color="#41AB34"/>
<stop offset="1" stop-color="#7DB928"/>
</linearGradient>
<clipPath id="clip0_1352_2">
<rect width="1301.82" height="301.75" fill="white"/>
</clipPath>
</defs>
</svg>
