<?xml version="1.0" encoding="UTF-8"?>
<svg id="Camada_2" data-name="Camada 2" xmlns="http://www.w3.org/2000/svg" viewBox="0 0 564.08 493.93">
  <defs>
    <style>
      .cls-1 {
        fill: #141414;
      }

      .cls-2 {
        font-family: PaintBrushRegular, 'Paint Brush';
        font-size: 75px;
      }

      .cls-3 {
        fill: #272727;
      }

      .cls-4 {
        fill: #0c0c0c;
      }

      .cls-5 {
        fill: #424242;
      }

      .cls-6 {
        fill: #060606;
      }

      .cls-7 {
        letter-spacing: 0em;
      }

      .cls-8 {
        fill: #c4c4c4;
      }

      .cls-9 {
        fill: #212121;
      }

      .cls-10 {
        fill: #cbcbcb;
      }

      .cls-11 {
        fill: #333;
      }

      .cls-12 {
        fill: #0f0f0f;
      }

      .cls-13 {
        fill: #1d1d1d;
      }

      .cls-14 {
        fill: #1b1b1b;
      }

      .cls-15 {
        fill: #fefefe;
      }

      .cls-16 {
        fill: #040404;
      }

      .cls-17 {
        fill: #101010;
      }
    </style>
  </defs>
  <g id="Camada_1-2" data-name="Camada 1">
    <g>
      <path d="M452.02,272.85c-.15-1.23-.04-1.96,1.01-2.66h.99v2.66h-1.99Z"/>
      <polygon points="457.36 275.52 456.7 272.18 459.36 272.86 457.36 275.52"/>
      <path d="M478.04,272.18v-3.34c.64.11,2.48-.17,2.65,0,1.11,1.07-1.58,3.26-2.65,3.33Z"/>
      <path d="M490.71,386.59l4,.33c-.81-3.6-2.15-2.62-4-.33ZM496.04,359.57c-.22-.21-2.7-.05-3.36.31-1.3.71.34,3.68,2.71,2.04.74-.51.91-2.1.65-2.35ZM496.04,371.58c-.51-.58-3.88,1.59-4,2.65,3.12-.09,4.6,1.11,4-2.65ZM496.04,371.58c-.51-.58-3.88,1.59-4,2.65,3.12-.09,4.6,1.11,4-2.65ZM496.04,359.57c-.22-.21-2.7-.05-3.36.31-1.3.71.34,3.68,2.71,2.04.74-.51.91-2.1.65-2.35ZM490.71,386.59l4,.33c-.81-3.6-2.15-2.62-4-.33ZM306.52,87.51c-.82-.53-5.06.38-5.61,1.22-3.78,5.74,9.86,9.97,5.61-1.22ZM317.89,130.18c-.3-.47-9.16-2.84-10.61-3.4,1.8,3.54,2.71,3.28-.36,5.98-4.92,4.32-13.35,6.79-19.81,5.84-4.06-.59-6.74-3.64-10.51-3.5,5.46,7.19,16.56,6.69,24.25,3.58,3.62-1.46,9.64-7.31,11.61-7.8,1.4-.35,7.8,2.98,5.44-.72ZM353.96,106.1l.34-3.33-4.34,6,8-.67c.5-2.11-2.85-1.63-4-2ZM490.71,386.59l4,.33c-.81-3.6-2.15-2.62-4-.33ZM496.04,359.57c-.22-.21-2.7-.05-3.36.31-1.3.71.34,3.68,2.71,2.04.74-.51.91-2.1.65-2.35ZM496.04,371.58c-.51-.58-3.88,1.59-4,2.65,3.12-.09,4.6,1.11,4-2.65ZM353.96,106.1l.34-3.33-4.34,6,8-.67c.5-2.11-2.85-1.63-4-2ZM317.89,130.18c-.3-.47-9.16-2.84-10.61-3.4,1.8,3.54,2.71,3.28-.36,5.98-4.92,4.32-13.35,6.79-19.81,5.84-4.06-.59-6.74-3.64-10.51-3.5,5.46,7.19,16.56,6.69,24.25,3.58,3.62-1.46,9.64-7.31,11.61-7.8,1.4-.35,7.8,2.98,5.44-.72ZM306.52,87.51c-.82-.53-5.06.38-5.61,1.22-3.78,5.74,9.86,9.97,5.61-1.22ZM496.04,371.58c-.51-.58-3.88,1.59-4,2.65,3.12-.09,4.6,1.11,4-2.65ZM496.04,359.57c-.22-.21-2.7-.05-3.36.31-1.3.71.34,3.68,2.71,2.04.74-.51.91-2.1.65-2.35ZM490.71,386.59l4,.33c-.81-3.6-2.15-2.62-4-.33ZM273.07,87.54c-4.51,1.32-2.1,8.31,2.37,7.12,4.3-1.15,2.64-8.58-2.37-7.12ZM306.52,87.51c-.82-.53-5.06.38-5.61,1.22-3.78,5.74,9.86,9.97,5.61-1.22ZM317.89,130.18c-.3-.47-9.16-2.84-10.61-3.4,1.8,3.54,2.71,3.28-.36,5.98-4.92,4.32-13.35,6.79-19.81,5.84-4.06-.59-6.74-3.64-10.51-3.5,5.46,7.19,16.56,6.69,24.25,3.58,3.62-1.46,9.64-7.31,11.61-7.8,1.4-.35,7.8,2.98,5.44-.72ZM353.96,106.1l.34-3.33-4.34,6,8-.67c.5-2.11-2.85-1.63-4-2ZM490.71,386.59l4,.33c-.81-3.6-2.15-2.62-4-.33ZM496.04,359.57c-.22-.21-2.7-.05-3.36.31-1.3.71.34,3.68,2.71,2.04.74-.51.91-2.1.65-2.35ZM496.04,371.58c-.51-.58-3.88,1.59-4,2.65,3.12-.09,4.6,1.11,4-2.65ZM353.96,106.1l.34-3.33-4.34,6,8-.67c.5-2.11-2.85-1.63-4-2ZM317.89,130.18c-.3-.47-9.16-2.84-10.61-3.4,1.8,3.54,2.71,3.28-.36,5.98-4.92,4.32-13.35,6.79-19.81,5.84-4.06-.59-6.74-3.64-10.51-3.5,5.46,7.19,16.56,6.69,24.25,3.58,3.62-1.46,9.64-7.31,11.61-7.8,1.4-.35,7.8,2.98,5.44-.72ZM306.52,87.51c-.82-.53-5.06.38-5.61,1.22-3.78,5.74,9.86,9.97,5.61-1.22ZM273.07,87.54c-4.51,1.32-2.1,8.31,2.37,7.12,4.3-1.15,2.64-8.58-2.37-7.12ZM496.04,371.58c-.51-.58-3.88,1.59-4,2.65,3.12-.09,4.6,1.11,4-2.65ZM496.04,359.57c-.22-.21-2.7-.05-3.36.31-1.3.71.34,3.68,2.71,2.04.74-.51.91-2.1.65-2.35ZM490.71,386.59l4,.33c-.81-3.6-2.15-2.62-4-.33ZM272.28,66.85c-1.01-.14-11.1,3.12-9.02,5.23,1.32-.09,9.67-2.28,10.01-2.67.34-.4-.11-2.43-.98-2.55ZM273.07,87.54c-4.51,1.32-2.1,8.31,2.37,7.12,4.3-1.15,2.64-8.58-2.37-7.12ZM306.52,87.51c-.82-.53-5.06.38-5.61,1.22-3.78,5.74,9.86,9.97,5.61-1.22ZM301.94,66.08c2.17,3.77,5.88,4.94,10.01,5.32-2.15-3.34-6.24-4.86-10.01-5.32ZM317.89,130.18c-.3-.47-9.16-2.84-10.61-3.4,1.8,3.54,2.71,3.28-.36,5.98-4.92,4.32-13.35,6.79-19.81,5.84-4.06-.59-6.74-3.64-10.51-3.5,5.46,7.19,16.56,6.69,24.25,3.58,3.62-1.46,9.64-7.31,11.61-7.8,1.4-.35,7.8,2.98,5.44-.72ZM353.96,106.1l.34-3.33-4.34,6,8-.67c.5-2.11-2.85-1.63-4-2ZM490.71,386.59l4,.33c-.81-3.6-2.15-2.62-4-.33ZM496.04,359.57c-.22-.21-2.7-.05-3.36.31-1.3.71.34,3.68,2.71,2.04.74-.51.91-2.1.65-2.35ZM496.04,371.58c-.51-.58-3.88,1.59-4,2.65,3.12-.09,4.6,1.11,4-2.65ZM353.96,106.1l.34-3.33-4.34,6,8-.67c.5-2.11-2.85-1.63-4-2ZM317.89,130.18c-.3-.47-9.16-2.84-10.61-3.4,1.8,3.54,2.71,3.28-.36,5.98-4.92,4.32-13.35,6.79-19.81,5.84-4.06-.59-6.74-3.64-10.51-3.5,5.46,7.19,16.56,6.69,24.25,3.58,3.62-1.46,9.64-7.31,11.61-7.8,1.4-.35,7.8,2.98,5.44-.72ZM273.07,87.54c-4.51,1.32-2.1,8.31,2.37,7.12,4.3-1.15,2.64-8.58-2.37-7.12ZM306.52,87.51c-.82-.53-5.06.38-5.61,1.22-3.78,5.74,9.86,9.97,5.61-1.22ZM301.94,66.08c2.17,3.77,5.88,4.94,10.01,5.32-2.15-3.34-6.24-4.86-10.01-5.32ZM272.28,66.85c-1.01-.14-11.1,3.12-9.02,5.23,1.32-.09,9.67-2.28,10.01-2.67.34-.4-.11-2.43-.98-2.55ZM496.04,371.58c-.51-.58-3.88,1.59-4,2.65,3.12-.09,4.6,1.11,4-2.65ZM496.04,359.57c-.22-.21-2.7-.05-3.36.31-1.3.71.34,3.68,2.71,2.04.74-.51.91-2.1.65-2.35ZM490.71,386.59l4,.33c-.81-3.6-2.15-2.62-4-.33ZM272.28,66.85c-1.01-.14-11.1,3.12-9.02,5.23,1.32-.09,9.67-2.28,10.01-2.67.34-.4-.11-2.43-.98-2.55ZM273.07,87.54c-4.51,1.32-2.1,8.31,2.37,7.12,4.3-1.15,2.64-8.58-2.37-7.12ZM306.52,87.51c-.82-.53-5.06.38-5.61,1.22-3.78,5.74,9.86,9.97,5.61-1.22ZM301.94,66.08c2.17,3.77,5.88,4.94,10.01,5.32-2.15-3.34-6.24-4.86-10.01-5.32ZM317.89,130.18c-.3-.47-9.16-2.84-10.61-3.4,1.8,3.54,2.71,3.28-.36,5.98-4.92,4.32-13.35,6.79-19.81,5.84-4.06-.59-6.74-3.64-10.51-3.5,5.46,7.19,16.56,6.69,24.25,3.58,3.62-1.46,9.64-7.31,11.61-7.8,1.4-.35,7.8,2.98,5.44-.72ZM353.96,106.1l.34-3.33-4.34,6,8-.67c.5-2.11-2.85-1.63-4-2ZM490.71,386.59l4,.33c-.81-3.6-2.15-2.62-4-.33ZM496.04,359.57c-.22-.21-2.7-.05-3.36.31-1.3.71.34,3.68,2.71,2.04.74-.51.91-2.1.65-2.35ZM496.04,371.58c-.51-.58-3.88,1.59-4,2.65,3.12-.09,4.6,1.11,4-2.65ZM353.96,106.1l.34-3.33-4.34,6,8-.67c.5-2.11-2.85-1.63-4-2ZM307.28,126.78c1.8,3.54,2.71,3.28-.36,5.98-4.92,4.32-13.35,6.79-19.81,5.84-4.06-.59-6.74-3.64-10.51-3.5,5.46,7.19,16.56,6.69,24.25,3.58,3.62-1.46,9.64-7.31,11.61-7.8,1.4-.35,7.8,2.98,5.44-.72-.3-.47-9.16-2.84-10.61-3.4ZM273.07,87.54c-4.51,1.32-2.1,8.31,2.37,7.12,4.3-1.15,2.64-8.58-2.37-7.12ZM306.52,87.51c-.82-.53-5.06.38-5.61,1.22-3.78,5.74,9.86,9.97,5.61-1.22ZM301.94,66.08c2.17,3.77,5.88,4.94,10.01,5.32-2.15-3.34-6.24-4.86-10.01-5.32ZM272.28,66.85c-1.01-.14-11.1,3.12-9.02,5.23,1.32-.09,9.67-2.28,10.01-2.67.34-.4-.11-2.43-.98-2.55ZM496.04,371.58c-.51-.58-3.88,1.59-4,2.65,3.12-.09,4.6,1.11,4-2.65ZM495.39,361.92c.74-.51.91-2.1.65-2.35-.22-.21-2.7-.05-3.36.31-1.3.71.34,3.68,2.71,2.04ZM490.71,386.59l4,.33c-.81-3.6-2.15-2.62-4-.33ZM563.69,474.95l-172.36,1.33-3.35-31.34,104.73-1.99-.64-36c34.26-2.35,39.07-46.46,16.66-66.4-4.46-3.96-16.5-12.09-17.88-18.14-.93-4.08.06-11.89-.11-16.56-.06-1.58-.69-3.03-.73-4.62-.33-13.21.31-26.5.03-39.71-16.09,1.14-32.25.5-48.39.64-4.84.04-9.84,1.6-15.01-.28-27.97-12.52-57.22-22.29-85.13-34.93-4.3-1.94-12.51-4.67-14.49-8.86-4.04-8.54-2.63-24.45-2.97-33.86,27.43-6.92,28.56-33.25,27.33-57.04.36-1.03,5.42-2.14,7.04-2.97,11.19-5.77,12.41-26.83-1.81-29.84,3.19-9.41,4.62-20.04,4.06-30-.23-4.06-1.98-9.32-1.33-13.28.4-2.39,2.73-4.18,3.63-6.37,3.05-7.48-2.19-15.95-9.49-18.53-2.02-.71-7.65-1.33-8.69-2.31-1.07-1.01-3.85-8.32-5.62-10.73-9.08-12.36-26.6-16.67-40.56-10.11-4.92,2.31-10.83,8.64-15.85,9.5-4.98.85-11.36-1.21-16.52-1.21-8.5,0-13.49,3.9-15.69,12.05-16.06-7.6-32.26,8.06-26.2,24.53,1.18,3.2,5.22,6.11,5.54,7.84.46,2.57-1.07,6.41-.61,9.93.51,3.94,3.62,7.48,4.46,11.55.54,2.63.49,6.05,1.02,8.98.62,3.42,1.74,6.79,2.48,10.19-3.81.84-6.44-.73-9.36,2.67-5.26,6.14-3.87,18.18,1.75,23.61,2.41,2.33,5.25,2.36,7.5,4.52,1.87,16.91-2.17,41.08,13.51,52.53,2.59,1.89,13.29,6.44,13.81,8.19.41,1.35.22,4.32.15,5.91-.2,5.36-.79,19.86-2.56,24.11-1.69,4.06-4.32,4.92-7.9,6.78-29.29,15.26-62.4,27.09-92.11,41.96-17.22.67-34.67,1.28-51.84,1.51-16.35.23-32.72-.22-49.06-.03l-.66,38.02h-9.67c-1.99,0-4.97,2.48-5.41,4.65-1.08,5.28,3.78,9.71,3.47,5.98-.27-3.28-4.4-7.8,2.59-8.64,7.95-.94,18.72.29,24.62,6.09,12.49,12.29-2.64,14.77-9.99,5.98-1.69-2.03-.09-3.22-.28-3.38-.56-.46-11.55,2.25-12.01,2.67-1.16,1.07.17,1.15,1.02,1.31,3.24.6,6.51.44,9.65,1.69,2,.79,9.19,4.58,10.9,5.78,3.37,2.37.29,4.05-2.59,4.52-3.68.61-17.07-.85-18.98.37-.66.42-.79.92-.66,1.67,7.14-.16,14.91-1.54,21.74,1.26.75.31,1.01-.38.96,1.05-.05,1.31-.81,4.1-2.02,4.7-2.63,1.23-19.97,2.24-20.68,3-.07.07-.06,1.92,0,1.99.77.79,18.9-3.82,21.98-1.3.07,9.22-14.17,4.51-19.31,9.65,3.56,1.21,11.32-2.27,14.25-1.73.85.16,1.47,4.16,1.03,4.67-.35.4-8.88,3.28-10.09,3.58-5.69,1.43-10.79,2.99-13.53-3.52-3.3,4.7,3.82,5.64,6.57,7.44,3.01,1.97,6.55,6.69,7.05,10.29.38,24.11-.59,48.27.72,72.32l139.41-.67c-1.05,10.09-1.63,20.55-3.3,30.39-57.44.15-115,1.08-172.5.93-7.6,1.88-16.46-.27-23.99.69-.97.13-2.07.51-.99,1.33l563.63-4-.39-2.01ZM502.67,344.6c8.21,7.26,6.87,31.45,3.03,40.97-5.33,13.22-22.45,15.49-33.5,8.18-1.6-1.06-5.3-4.43-2.75-6.08,1.79-1.17,11.14,2.86,12.85,2.49.78-.17,1.25-1.11,1.07-1.9-3.67-.4-17.86-2.95-17.99-7.66-.07-2.23,2.7-4.31,4.9-4.3,3.09,0,13.19,3.52,14.69,3.19.78-.17,1.25-1.11,1.07-1.9-4.96-1.33-22.46-2.3-22-9.63.53-8.5,20.49-1.51,21.33-2.39.07-.07.07-1.92,0-1.99-.71-.76-15.88-1.16-20.04-4.98-3.8-3.48.37-5,3.85-6.22,4.86-1.71,10.11-1.65,15.22-1.51,1.36.04,5.62,1.83,5.64-.29l-10.99-3.02c-3.88.57-7.9,2.49-11.85,1.85-.91-.14-8.16-2.9-8.38-3.29-.25-.43-.27-2.23-.05-2.5.49-.61,13.53-3.82,15.01-3.99,6.47-.73,24.04.67,28.9,4.97ZM239.91,79.08c0-1.17,3.32-6,4.02-7.98,1.09-3.07,1.27-5.88,1.6-9.07,8.5-2.02,16.67-3.36,22.39-10.63-8.68-3.64-21.22-13.54-12.68-23.35-.06,2.47-1.84,4.65-1.96,7.1-.3,5.92,9.74,13.49,14.64,15.57,4.29,1.82,17.26,4.63,21.34,2.67.33-.16,5.18-4.12,5.69-4.64,2.52-2.57,3.95-6.52,6.98-8.7-2.29,5.82-7.02,9.81-11.33,14.01,9.03.55,22.49-8.44,28.68-14.67-3.7,6.7,2.47,15.6,9.3,17.05,2.28.48,8.96-.22,9.75.92.39,5.73.2,11.81,4.3,16.38,1.09,1.21,3.5,2.24,3.88,3.46,1.41,4.62-2.15,11.59,2.79,15.54-7.18-2.09-14.67-2.31-22.01-3.66-2.81-3.32-3.09-7.81-6.31-11.03-7.79-7.8-20.19-5.34-25.16,4.24-2.51,4.83-.51,8.32-7.88,7.12v-12.34c0-.87,1.98-1.21-1.01-2.33-.19-.07-.99,1.57-.99,1.66v12.34l-3.21-6.46c-6.86-11.63-23.91-11.99-29.33.95-.73,1.73-1.3,6.54-1.54,6.8-.41.45-10.33,1.28-11.95,2.05v-13.01ZM320.29,100.77c-9.72,10.37-26.49,1.49-24.85-12.17.7-5.9,5.67-12.01,11.66-13.03,14.2-2.42,22.7,15.07,13.19,25.2ZM270.87,105.37c-20.14,2.69-23.15-27.47-4.44-29.78,19.99-2.46,22.21,27.41,4.44,29.78ZM237.23,108.1l-4.66-1.67c.38,1.21,4.67,4.98,4.67,5.34v12.34c-9.97-.83-13.86-16.06-8.3-23.3,1.85-2.41,7.86-2.89,8.94-1.35.25.35-1.37,7.15-.65,8.64ZM239.21,141.81c-.71-15.57.13-32.1.77-47.65l11.93-2.06c1.78,14.42,19.44,20.78,28.98,9.28l4.38-7.95c1.38,5.69-5.86,19.88-4.55,24.21.67,2.21,11.25,4.06,12.84,3.73.99-.2,1.41-2.22,1.05-2.59-.43-.43-10.39.09-12.05-1.74l5.38-25.61c1.26.25,4.46-.43,5.25.09.32.21,1.25,4.77,1.75,5.92,5.63,12.66,22.81,13.16,29.28.59,2.94-5.72-.11-7.06,8.08-6.58,1.63.09,12.95,1.71,13.53,2.13.85.61,1.04,5.79,1.48,7.2,1.53,1.33,10.33-7.84,15.63-.63,6.33,8.6-.35,22.65-10.64,24.61-2.36-1.17.63-6.35-2.32-5.97.56,3.5-.55,7.01-.7,10.31-.66,14.76,2.37,29.82-7.7,42.33-13.1,16.28-54.11,17.1-73.13,13.87-24.65-4.18-28.21-21.47-29.23-43.48ZM266.59,186.81l19.02,1.99c5.5.27,11.18-.34,16.66.01,2.2.15,18.26,2.4,19.04,2.97,1.47,1.07,1.51,16.37,2.15,19.86.76,4.14,2.59,7.48,3.52,11.17-16.13,18.26-50.49,22.76-65.73,1.04,5.5-11.57,4.23-24.58,5.33-37.04ZM153.56,446.31c-29.91.25-59.85-.25-89.75-.03l-.69-82.27c.19-.78,8.59-3.57,9.25-5.56.51-1.51-.29-3.62.21-5.12.61-1.82,4.82-1.6,3.77-7.28-.15-.8-1.01-1.59-1.09-2.27-.09-.93,1.77-2.43,1.93-4.56.15-2.18-1.25-4.11-1.07-5.04.07-.37,2.33-6.79,2.54-7.11.67-1.05,4.61-2.63,4.34-5.74-.17-1.88-4.63-7.67-6.19-9.1-4.51-4.14-9.08-4.34-14.33-6.34v-35.69l425.56-6.67,1.33,75.37c-6.02-1.45-12.15-1.45-18.26-.59-10.89,1.53-23.4,5.92-5.75,12.61.79,1.1-2.55,3.05-2.99,4-2.09,4.5,4.74,5.97,4.32,7.65-3.53,2.47-5.67,4.45-3.35,8.7.62,1.13,2.39,2.71,2.59,3.46.48,1.85-2.36,4.4-2.34,5.86.02,1.63,3.25,4.14,3.62,5.47,1.18,4.18-1.59,5.5,3.52,9.16,5.11,3.65,13.2,4.29,19.3,4.38-.45,13.84,1.1,27.51.67,41.36-21.44.58-42.94.23-64.4.63-90.8,1.69-181.84,3.98-272.75,4.73ZM496.04,371.58c-.51-.58-3.88,1.59-4,2.65,3.12-.09,4.6,1.11,4-2.65ZM495.39,361.92c.74-.51.91-2.1.65-2.35-.22-.21-2.7-.05-3.36.31-1.3.71.34,3.68,2.71,2.04ZM490.71,386.59l4,.33c-.81-3.6-2.15-2.62-4-.33ZM353.96,106.1l.34-3.33-4.34,6,8-.67c.5-2.11-2.85-1.63-4-2ZM300.85,138.69c3.62-1.46,9.64-7.31,11.61-7.8,1.4-.35,7.8,2.98,5.44-.72-.3-.47-9.16-2.84-10.61-3.4,1.8,3.54,2.71,3.28-.36,5.98-4.92,4.32-13.35,6.79-19.81,5.84-4.06-.59-6.74-3.64-10.51-3.5,5.46,7.19,16.56,6.69,24.25,3.58ZM311.95,71.4c-2.15-3.34-6.24-4.86-10.01-5.32,2.17,3.77,5.88,4.94,10.01,5.32ZM300.91,88.73c-3.78,5.74,9.86,9.97,5.61-1.22-.82-.53-5.06.38-5.61,1.22ZM273.07,87.54c-4.51,1.32-2.1,8.31,2.37,7.12,4.3-1.15,2.64-8.58-2.37-7.12ZM273.26,69.4c.34-.4-.11-2.43-.98-2.55-1.01-.14-11.1,3.12-9.02,5.23,1.32-.09,9.67-2.28,10.01-2.67ZM490.71,386.59l4,.33c-.81-3.6-2.15-2.62-4-.33ZM496.04,359.57c-.22-.21-2.7-.05-3.36.31-1.3.71.34,3.68,2.71,2.04.74-.51.91-2.1.65-2.35ZM496.04,371.58c-.51-.58-3.88,1.59-4,2.65,3.12-.09,4.6,1.11,4-2.65ZM272.28,66.85c-1.01-.14-11.1,3.12-9.02,5.23,1.32-.09,9.67-2.28,10.01-2.67.34-.4-.11-2.43-.98-2.55ZM301.94,66.08c2.17,3.77,5.88,4.94,10.01,5.32-2.15-3.34-6.24-4.86-10.01-5.32ZM306.52,87.51c-.82-.53-5.06.38-5.61,1.22-3.78,5.74,9.86,9.97,5.61-1.22ZM273.07,87.54c-4.51,1.32-2.1,8.31,2.37,7.12,4.3-1.15,2.64-8.58-2.37-7.12ZM317.89,130.18c-.3-.47-9.16-2.84-10.61-3.4,1.8,3.54,2.71,3.28-.36,5.98-4.92,4.32-13.35,6.79-19.81,5.84-4.06-.59-6.74-3.64-10.51-3.5,5.46,7.19,16.56,6.69,24.25,3.58,3.62-1.46,9.64-7.31,11.61-7.8,1.4-.35,7.8,2.98,5.44-.72ZM353.96,106.1l.34-3.33-4.34,6,8-.67c.5-2.11-2.85-1.63-4-2ZM496.04,371.58c-.51-.58-3.88,1.59-4,2.65,3.12-.09,4.6,1.11,4-2.65ZM496.04,359.57c-.22-.21-2.7-.05-3.36.31-1.3.71.34,3.68,2.71,2.04.74-.51.91-2.1.65-2.35ZM490.71,386.59l4,.33c-.81-3.6-2.15-2.62-4-.33ZM353.96,106.1l.34-3.33-4.34,6,8-.67c.5-2.11-2.85-1.63-4-2ZM317.89,130.18c-.3-.47-9.16-2.84-10.61-3.4,1.8,3.54,2.71,3.28-.36,5.98-4.92,4.32-13.35,6.79-19.81,5.84-4.06-.59-6.74-3.64-10.51-3.5,5.46,7.19,16.56,6.69,24.25,3.58,3.62-1.46,9.64-7.31,11.61-7.8,1.4-.35,7.8,2.98,5.44-.72ZM301.94,66.08c2.17,3.77,5.88,4.94,10.01,5.32-2.15-3.34-6.24-4.86-10.01-5.32ZM306.52,87.51c-.82-.53-5.06.38-5.61,1.22-3.78,5.74,9.86,9.97,5.61-1.22ZM273.07,87.54c-4.51,1.32-2.1,8.31,2.37,7.12,4.3-1.15,2.64-8.58-2.37-7.12ZM272.28,66.85c-1.01-.14-11.1,3.12-9.02,5.23,1.32-.09,9.67-2.28,10.01-2.67.34-.4-.11-2.43-.98-2.55ZM490.71,386.59l4,.33c-.81-3.6-2.15-2.62-4-.33ZM496.04,359.57c-.22-.21-2.7-.05-3.36.31-1.3.71.34,3.68,2.71,2.04.74-.51.91-2.1.65-2.35ZM496.04,371.58c-.51-.58-3.88,1.59-4,2.65,3.12-.09,4.6,1.11,4-2.65ZM272.28,66.85c-1.01-.14-11.1,3.12-9.02,5.23,1.32-.09,9.67-2.28,10.01-2.67.34-.4-.11-2.43-.98-2.55ZM301.94,66.08c2.17,3.77,5.88,4.94,10.01,5.32-2.15-3.34-6.24-4.86-10.01-5.32ZM306.52,87.51c-.82-.53-5.06.38-5.61,1.22-3.78,5.74,9.86,9.97,5.61-1.22ZM273.07,87.54c-4.51,1.32-2.1,8.31,2.37,7.12,4.3-1.15,2.64-8.58-2.37-7.12ZM317.89,130.18c-.3-.47-9.16-2.84-10.61-3.4,1.8,3.54,2.71,3.28-.36,5.98-4.92,4.32-13.35,6.79-19.81,5.84-4.06-.59-6.74-3.64-10.51-3.5,5.46,7.19,16.56,6.69,24.25,3.58,3.62-1.46,9.64-7.31,11.61-7.8,1.4-.35,7.8,2.98,5.44-.72ZM353.96,106.1l.34-3.33-4.34,6,8-.67c.5-2.11-2.85-1.63-4-2ZM496.04,371.58c-.51-.58-3.88,1.59-4,2.65,3.12-.09,4.6,1.11,4-2.65ZM496.04,359.57c-.22-.21-2.7-.05-3.36.31-1.3.71.34,3.68,2.71,2.04.74-.51.91-2.1.65-2.35ZM490.71,386.59l4,.33c-.81-3.6-2.15-2.62-4-.33ZM353.96,106.1l.34-3.33-4.34,6,8-.67c.5-2.11-2.85-1.63-4-2ZM317.89,130.18c-.3-.47-9.16-2.84-10.61-3.4,1.8,3.54,2.71,3.28-.36,5.98-4.92,4.32-13.35,6.79-19.81,5.84-4.06-.59-6.74-3.64-10.51-3.5,5.46,7.19,16.56,6.69,24.25,3.58,3.62-1.46,9.64-7.31,11.61-7.8,1.4-.35,7.8,2.98,5.44-.72ZM301.94,66.08c2.17,3.77,5.88,4.94,10.01,5.32-2.15-3.34-6.24-4.86-10.01-5.32ZM306.52,87.51c-.82-.53-5.06.38-5.61,1.22-3.78,5.74,9.86,9.97,5.61-1.22ZM273.07,87.54c-4.51,1.32-2.1,8.31,2.37,7.12,4.3-1.15,2.64-8.58-2.37-7.12ZM272.28,66.85c-1.01-.14-11.1,3.12-9.02,5.23,1.32-.09,9.67-2.28,10.01-2.67.34-.4-.11-2.43-.98-2.55ZM490.71,386.59l4,.33c-.81-3.6-2.15-2.62-4-.33ZM496.04,359.57c-.22-.21-2.7-.05-3.36.31-1.3.71.34,3.68,2.71,2.04.74-.51.91-2.1.65-2.35ZM496.04,371.58c-.51-.58-3.88,1.59-4,2.65,3.12-.09,4.6,1.11,4-2.65ZM273.07,87.54c-4.51,1.32-2.1,8.31,2.37,7.12,4.3-1.15,2.64-8.58-2.37-7.12ZM306.52,87.51c-.82-.53-5.06.38-5.61,1.22-3.78,5.74,9.86,9.97,5.61-1.22ZM317.89,130.18c-.3-.47-9.16-2.84-10.61-3.4,1.8,3.54,2.71,3.28-.36,5.98-4.92,4.32-13.35,6.79-19.81,5.84-4.06-.59-6.74-3.64-10.51-3.5,5.46,7.19,16.56,6.69,24.25,3.58,3.62-1.46,9.64-7.31,11.61-7.8,1.4-.35,7.8,2.98,5.44-.72ZM353.96,106.1l.34-3.33-4.34,6,8-.67c.5-2.11-2.85-1.63-4-2ZM496.04,371.58c-.51-.58-3.88,1.59-4,2.65,3.12-.09,4.6,1.11,4-2.65ZM496.04,359.57c-.22-.21-2.7-.05-3.36.31-1.3.71.34,3.68,2.71,2.04.74-.51.91-2.1.65-2.35ZM490.71,386.59l4,.33c-.81-3.6-2.15-2.62-4-.33ZM353.96,106.1l.34-3.33-4.34,6,8-.67c.5-2.11-2.85-1.63-4-2ZM317.89,130.18c-.3-.47-9.16-2.84-10.61-3.4,1.8,3.54,2.71,3.28-.36,5.98-4.92,4.32-13.35,6.79-19.81,5.84-4.06-.59-6.74-3.64-10.51-3.5,5.46,7.19,16.56,6.69,24.25,3.58,3.62-1.46,9.64-7.31,11.61-7.8,1.4-.35,7.8,2.98,5.44-.72ZM306.52,87.51c-.82-.53-5.06.38-5.61,1.22-3.78,5.74,9.86,9.97,5.61-1.22ZM273.07,87.54c-4.51,1.32-2.1,8.31,2.37,7.12,4.3-1.15,2.64-8.58-2.37-7.12ZM490.71,386.59l4,.33c-.81-3.6-2.15-2.62-4-.33ZM496.04,359.57c-.22-.21-2.7-.05-3.36.31-1.3.71.34,3.68,2.71,2.04.74-.51.91-2.1.65-2.35ZM496.04,371.58c-.51-.58-3.88,1.59-4,2.65,3.12-.09,4.6,1.11,4-2.65ZM317.89,130.18c-.3-.47-9.16-2.84-10.61-3.4,1.8,3.54,2.71,3.28-.36,5.98-4.92,4.32-13.35,6.79-19.81,5.84-4.06-.59-6.74-3.64-10.51-3.5,5.46,7.19,16.56,6.69,24.25,3.58,3.62-1.46,9.64-7.31,11.61-7.8,1.4-.35,7.8,2.98,5.44-.72ZM353.96,106.1l.34-3.33-4.34,6,8-.67c.5-2.11-2.85-1.63-4-2ZM496.04,371.58c-.51-.58-3.88,1.59-4,2.65,3.12-.09,4.6,1.11,4-2.65ZM496.04,359.57c-.22-.21-2.7-.05-3.36.31-1.3.71.34,3.68,2.71,2.04.74-.51.91-2.1.65-2.35ZM490.71,386.59l4,.33c-.81-3.6-2.15-2.62-4-.33ZM353.96,106.1l.34-3.33-4.34,6,8-.67c.5-2.11-2.85-1.63-4-2ZM317.89,130.18c-.3-.47-9.16-2.84-10.61-3.4,1.8,3.54,2.71,3.28-.36,5.98-4.92,4.32-13.35,6.79-19.81,5.84-4.06-.59-6.74-3.64-10.51-3.5,5.46,7.19,16.56,6.69,24.25,3.58,3.62-1.46,9.64-7.31,11.61-7.8,1.4-.35,7.8,2.98,5.44-.72ZM490.71,386.59l4,.33c-.81-3.6-2.15-2.62-4-.33ZM496.04,359.57c-.22-.21-2.7-.05-3.36.31-1.3.71.34,3.68,2.71,2.04.74-.51.91-2.1.65-2.35ZM496.04,371.58c-.51-.58-3.88,1.59-4,2.65,3.12-.09,4.6,1.11,4-2.65ZM496.04,371.58c-.51-.58-3.88,1.59-4,2.65,3.12-.09,4.6,1.11,4-2.65ZM496.04,359.57c-.22-.21-2.7-.05-3.36.31-1.3.71.34,3.68,2.71,2.04.74-.51.91-2.1.65-2.35ZM490.71,386.59l4,.33c-.81-3.6-2.15-2.62-4-.33Z"/>
      <path class="cls-9" d="M48.47,322.88c-.35,3.01-.62,5.65-.33,8.66-4.09-1.66-4.11-7.6.33-8.66Z"/>
      <polygon class="cls-12" points="49.13 356.23 45.16 349.88 48.14 348.23 49.13 356.23"/>
      <path class="cls-1" d="M48.46,342.89c-2.38-.43-4.52-5.96-1.66-5.99.95,0,1.8,4.97,1.66,5.99Z"/>
      <path class="cls-15" d="M453.03,270.19h.99v2.66h-1.99c-.15-1.23-.04-1.96,1.01-2.66Z"/>
      <polygon class="cls-15" points="456.7 272.18 459.36 272.86 457.36 275.52 456.7 272.18"/>
      <path class="cls-15" d="M478.04,272.18v-3.34c.64.11,2.48-.17,2.65,0,1.11,1.07-1.58,3.26-2.65,3.33Z"/>
      <path class="cls-15" d="M317.89,130.18c2.36,3.7-4.04.37-5.44.72-1.97.49-7.98,6.34-11.61,7.8-7.69,3.11-18.8,3.61-24.25-3.58,3.78-.15,6.45,2.9,10.51,3.5,6.46.95,14.89-1.52,19.81-5.84,3.08-2.7,2.16-2.44.36-5.98,1.45.55,10.31,2.92,10.61,3.4Z"/>
      <path class="cls-15" d="M357.96,108.1l-8,.67,4.34-6-.34,3.33c1.15.37,4.5-.11,4,2Z"/>
      <path class="cls-15" d="M273.26,69.4c-.34.39-8.68,2.59-10.01,2.67-2.07-2.11,8.01-5.37,9.02-5.23.87.12,1.32,2.15.98,2.55Z"/>
      <path class="cls-15" d="M311.95,71.4c-4.13-.39-7.83-1.55-10.01-5.32,3.77.46,7.86,1.98,10.01,5.32Z"/>
      <path class="cls-15" d="M494.7,386.91l-4-.33c1.84-2.29,3.18-3.28,4,.33Z"/>
      <path class="cls-15" d="M492.68,359.88c.65-.35,3.14-.52,3.36-.31.26.25.09,1.83-.65,2.35-2.37,1.64-4.01-1.33-2.71-2.04Z"/>
      <path class="cls-15" d="M492.04,374.23c.11-1.06,3.48-3.24,4-2.65.61,3.76-.87,2.57-4,2.65Z"/>
      <path class="cls-15" d="M275.44,94.66c-4.47,1.19-6.88-5.8-2.37-7.12,5.01-1.47,6.66,5.97,2.37,7.12Z"/>
      <path class="cls-15" d="M300.91,88.73c.55-.84,4.79-1.75,5.61-1.22,4.25,11.19-9.39,6.96-5.61,1.22Z"/>
      <path class="cls-10" d="M516.05,378.24c-1.09,5.79-4.54,11.15-8.66,15.34,2.21-5.25,6.7-9.69,8-15.34.19-.58.41-.57.67,0Z"/>
      <path class="cls-8" d="M516.05,378.24h-.67c.72-3.11.52-6.23,1-9.35.93,3.16.23,6.38-.33,9.35Z"/>
      <path class="cls-5" d="M478.04,272.18v-3.34c.64.11,2.48-.17,2.65,0,1.11,1.07-1.58,3.26-2.65,3.33Z"/>
      <path class="cls-17" d="M454.02,270.19v2.66h-1.99c-.15-1.23-.04-1.96,1.01-2.66h.99Z"/>
      <polygon class="cls-11" points="459.36 272.86 457.36 275.52 456.7 272.18 459.36 272.86"/>
      <path class="cls-6" d="M312.45,130.9c-1.97.49-7.98,6.34-11.61,7.8-7.69,3.11-18.8,3.61-24.25-3.58,3.78-.15,6.45,2.9,10.51,3.5,6.46.95,14.89-1.52,19.81-5.84,3.08-2.7,2.16-2.44.36-5.98,1.45.55,10.31,2.92,10.61,3.4,2.36,3.7-4.04.37-5.44.72Z"/>
      <path class="cls-1" d="M357.96,108.1l-8,.67,4.34-6-.34,3.33c1.15.37,4.5-.11,4,2Z"/>
      <path class="cls-4" d="M273.26,69.4c-.34.39-8.68,2.59-10.01,2.67-2.07-2.11,8.01-5.37,9.02-5.23.87.12,1.32,2.15.98,2.55Z"/>
      <path class="cls-1" d="M311.95,71.4c-4.13-.39-7.83-1.55-10.01-5.32,3.77.46,7.86,1.98,10.01,5.32Z"/>
      <path class="cls-3" d="M495.39,361.92c-2.37,1.64-4.01-1.33-2.71-2.04.65-.35,3.14-.52,3.36-.31.26.25.09,1.83-.65,2.35Z"/>
      <path class="cls-14" d="M492.04,374.23c.11-1.06,3.48-3.24,4-2.65.61,3.76-.87,2.57-4,2.65Z"/>
      <path class="cls-13" d="M494.7,386.91l-4-.33c1.84-2.29,3.18-3.28,4,.33Z"/>
      <path class="cls-16" d="M275.44,94.66c-4.47,1.19-6.88-5.8-2.37-7.12,5.01-1.47,6.66,5.97,2.37,7.12Z"/>
      <path class="cls-6" d="M300.91,88.73c.55-.84,4.79-1.75,5.61-1.22,4.25,11.19-9.39,6.96-5.61,1.22Z"/>
      <text class="cls-2" transform="translate(111.72 380.93)"><tspan x="0" y="0">bem-v</tspan><tspan class="cls-7" x="188.32" y="0">i</tspan><tspan x="213.97" y="0">ndo</tspan></text>
    </g>
  </g>
</svg>